<svg width="90" height="90" viewBox="0 0 90 90" fill="none" xmlns="http://www.w3.org/2000/svg">
<g clip-path="url(#clip0_287_11615)">
<path d="M56.25 15L78.75 22.5V41.25H67.5V71.25C67.5 72.2446 67.1049 73.1984 66.4017 73.9017C65.6984 74.6049 64.7446 75 63.75 75H26.25C25.2554 75 24.3016 74.6049 23.5984 73.9017C22.8951 73.1984 22.5 72.2446 22.5 71.25V41.25H11.25V22.5L33.75 15C33.75 17.9837 34.9353 20.8452 37.045 22.955C39.1548 25.0647 42.0163 26.25 45 26.25C47.9837 26.25 50.8452 25.0647 52.955 22.955C55.0647 20.8452 56.25 17.9837 56.25 15Z" stroke="currentColor" stroke-width="2" stroke-linecap="round" stroke-linejoin="round"/>
</g>
<defs>
<clipPath id="clip0_287_11615">
<rect width="90" height="90"/>
</clipPath>
</defs>
</svg>
