<svg width="100%" height="100%" viewBox="0 0 68 68" fill="none" xmlns="http://www.w3.org/2000/svg">
<g clip-path="url(#clip0_287_11832)">
<path d="M34 59.5C48.0833 59.5 59.5 48.0833 59.5 34C59.5 19.9167 48.0833 8.5 34 8.5C19.9167 8.5 8.5 19.9167 8.5 34C8.5 48.0833 19.9167 59.5 34 59.5Z" stroke="currentColor" stroke-width="2" stroke-linecap="round" stroke-linejoin="round"/>
<path d="M34.0001 19.834L47.4868 29.609L42.5001 45.334H25.5001L20.5134 29.609L34.0001 19.834Z" stroke="currentColor" stroke-width="2" stroke-linecap="round" stroke-linejoin="round"/>
<path d="M34.0001 19.8333V8.5M42.5001 45.3333L49.5834 53.8333M47.4868 29.6083L58.0834 25.5M25.6701 45.475L18.4167 53.8333M20.5134 29.6083L9.91675 25.5" stroke="currentColor" stroke-width="2" stroke-linecap="round" stroke-linejoin="round"/>
</g>
<defs>
<clipPath id="clip0_287_11832">
<rect width="68" height="68"/>
</clipPath>
</defs>
</svg>
