<svg width="91" height="90" viewBox="0 0 91 90" fill="none" xmlns="http://www.w3.org/2000/svg">
<path d="M3.81702 58.8148C3.81702 61.7668 6.22002 64.1698 9.17202 64.1698H11.269V66.6988C11.269 67.4458 11.872 68.0488 12.619 68.0488C13.366 68.0488 13.969 67.4458 13.969 66.6988V64.1698H21.223V66.6988C21.223 67.4458 21.826 68.0488 22.573 68.0488C23.32 68.0488 23.923 67.4458 23.923 66.6988V64.1698H31.177V66.6988C31.177 67.4458 31.78 68.0488 32.527 68.0488C33.274 68.0488 33.877 67.4458 33.877 66.6988V64.1698H48.079V66.6988C48.079 67.4458 48.682 68.0488 49.429 68.0488C50.176 68.0488 50.779 67.4458 50.779 66.6988V64.1698H58.033V66.6988C58.033 67.4458 58.636 68.0488 59.383 68.0488C60.13 68.0488 60.733 67.4458 60.733 66.6988V64.1698H67.987V66.6988C67.987 67.4458 68.59 68.0488 69.337 68.0488C70.084 68.0488 70.687 67.4458 70.687 66.6988V64.1698H77.941V66.6988C77.941 67.4458 78.544 68.0488 79.291 68.0488C80.038 68.0488 80.641 67.4458 80.641 66.6988V63.8818C84.592 62.8828 87.526 59.3098 87.526 55.0528C87.526 54.0808 87.382 53.1448 87.13 52.2358C87.112 52.1548 87.094 52.0828 87.067 52.0108C85.546 46.9348 80.281 43.0468 73.423 42.3178C69.778 41.9308 59.383 34.7848 45.613 23.1928C43.471 21.3928 40.366 21.5278 38.386 23.5078L32.446 29.4478C31.951 29.9428 31.267 30.2218 30.565 30.2218H21.412C20.71 30.2218 20.026 29.9428 19.531 29.4478L15.904 25.8208C14.797 24.7138 13.267 24.1468 11.719 24.2458C10.207 24.3448 8.82102 25.0828 7.91202 26.2708C3.70002 31.7788 3.80802 43.7848 3.81702 44.2708V58.8148ZM78.409 61.4788H9.17202C7.70502 61.4788 6.51702 60.2908 6.51702 58.8238V51.5158L20.377 52.5598C20.962 52.6048 21.574 52.8298 22.132 53.2258C28.963 57.9778 37.414 58.8328 42.598 58.8328C44.254 58.8328 45.577 58.7428 46.405 58.6708C47.323 58.5898 48.196 58.2928 49.006 57.7978C49.537 57.4738 50.149 57.3028 50.77 57.3028H75.907C80.416 57.3028 83.17 56.2678 84.817 55.2328C84.727 58.6798 81.892 61.4788 78.409 61.4788ZM10.063 27.9358C10.504 27.3598 11.161 27.0088 11.908 26.9638C11.971 26.9638 12.025 26.9548 12.088 26.9548C12.808 26.9548 13.492 27.2428 14.005 27.7468L17.632 31.3738C18.64 32.3818 19.99 32.9398 21.421 32.9398H30.547C31.978 32.9398 33.319 32.3818 34.336 31.3738L40.276 25.4338C41.257 24.4528 42.796 24.3808 43.858 25.2718C52.309 32.3818 67.348 44.4058 73.126 45.0178C78.589 45.5938 82.837 48.4558 84.277 52.2178C83.485 52.9918 81.208 54.5938 75.898 54.5938H50.761C49.636 54.5938 48.538 54.9088 47.584 55.4938C47.134 55.7728 46.657 55.9348 46.153 55.9798C42.967 56.2678 31.933 56.7628 23.671 51.0118C22.717 50.3458 21.646 49.9498 20.575 49.8688L6.51702 48.8068V44.2798C6.51702 44.1628 6.40902 32.7058 10.063 27.9358Z" fill="currentColor"/>
</svg>
