<svg width="74" height="74" viewBox="0 0 74 74" fill="none" xmlns="http://www.w3.org/2000/svg">
<g clip-path="url(#clip0_287_11839)">
<path d="M65.35 47.8144L41.4658 17.0188C40.9123 16.2986 40.1087 15.8162 39.2144 15.6672C38.32 15.5181 37.4002 15.7133 36.6373 16.214L31.1209 19.7862C30.4553 20.2195 29.6973 20.4864 28.9105 20.5643C28.1238 20.6423 27.3314 20.5292 26.5999 20.2344C25.8684 19.9396 25.2191 19.4717 24.7067 18.8702C24.1943 18.2686 23.8337 17.551 23.6553 16.7775L23.632 16.6767C23.4447 15.8616 23.0633 15.1058 22.5206 14.4744C21.9778 13.8431 21.29 13.355 20.5161 13.0521C19.7782 12.7835 18.9642 12.8099 18.2407 13.1258C17.5172 13.4416 16.9389 14.0231 16.6242 14.7512L8.73674 32.826C8.24797 33.9545 8.17201 35.2182 8.52242 36.3917C8.87282 37.5651 9.6268 38.5719 10.6498 39.2326L10.0533 42.7321C10.0128 42.9604 10.0498 43.1953 10.1583 43.3988C10.2668 43.6022 10.4405 43.7625 10.6513 43.8537L13.4767 45.0867C13.687 45.1792 13.9226 45.1975 14.1455 45.1387C14.3685 45.0799 14.5659 44.9473 14.7058 44.7623L16.8137 42.013L19.1116 43.0158L18.5295 46.4309C18.489 46.6593 18.526 46.8941 18.6345 47.0976C18.743 47.3011 18.9167 47.4613 19.1275 47.5525L21.9529 48.7855C22.1632 48.878 22.3988 48.8964 22.6217 48.8375C22.8447 48.7787 23.042 48.6461 23.1819 48.4612L25.2898 45.7118L34.1804 49.5915L33.5982 53.0066C33.5578 53.235 33.5948 53.4698 33.7033 53.6733C33.8118 53.8768 33.9854 54.0371 34.1963 54.1283L37.0217 55.3612C37.2319 55.4537 37.4675 55.4721 37.6905 55.4132C37.9135 55.3544 38.1108 55.2218 38.2507 55.0369L40.3586 52.2875L42.6566 53.2903L42.0744 56.7054C42.034 56.9338 42.071 57.1686 42.1795 57.3721C42.2879 57.5756 42.4616 57.7359 42.6725 57.8271L45.4978 59.06C45.7081 59.1526 45.9437 59.1709 46.1667 59.1121C46.3896 59.0532 46.587 58.9206 46.7269 58.7357L48.8348 55.9863L51.1328 56.9891L50.5506 60.4043C50.5101 60.6326 50.5471 60.8675 50.6556 61.071C50.7641 61.2745 50.9378 61.4347 51.1486 61.5259L53.974 62.7589C54.1843 62.8514 54.4199 62.8697 54.6428 62.8109C54.8658 62.7521 55.0632 62.6195 55.2031 62.4345L57.311 59.6852L58.4599 60.1866C59.7089 60.731 61.1251 60.7522 62.3973 60.2457C63.6696 59.7391 64.6937 58.7461 65.2446 57.4849L66.2492 55.1828C66.7746 53.9823 66.9684 52.6635 66.8101 51.3662C66.6518 50.0689 66.1472 48.8415 65.35 47.8144ZM13.518 27.0079C20.1782 30.1408 21.5967 33.3644 21.1315 37.1024L11.0355 32.6967L13.518 27.0079ZM59.2902 58.284L12.2003 37.7349C11.617 37.4784 11.1277 37.0463 10.7993 36.4977C10.4709 35.9491 10.3194 35.3105 10.3653 34.6692L62.7858 57.5444C62.3468 58.0143 61.7756 58.3374 61.15 58.4697C60.5245 58.6021 59.875 58.5372 59.2902 58.284ZM63.7761 55.7117L37.1044 44.0727C37.4526 32.0732 26.6062 25.9698 16.0171 21.281L18.5078 15.5731C18.604 15.3353 18.7857 15.1423 19.0165 15.033C19.2472 14.9236 19.5099 14.9059 19.7518 14.9835C20.2194 15.1614 20.6353 15.4533 20.9625 15.8331C21.2896 16.213 21.5179 16.669 21.6269 17.1607L21.6502 17.2615C21.8994 18.3238 22.3896 19.3119 23.0825 20.1486C23.7754 20.9853 24.6522 21.648 25.6444 22.0848C26.6977 22.5457 27.8498 22.7357 28.9979 22.6379C30.146 22.5401 31.2542 22.1575 32.2235 21.5244L37.744 17.9427C38.0791 17.7355 38.4767 17.6577 38.8626 17.724C39.2485 17.7902 39.5961 17.9959 39.8405 18.3026L42.9565 22.3124L40.4927 24.1816C40.2748 24.348 40.1308 24.594 40.092 24.8658C40.0533 25.1376 40.123 25.413 40.286 25.6316C40.3897 25.7754 40.5306 25.8878 40.6935 25.9566C40.8604 26.0297 41.044 26.0564 41.2253 26.034C41.4065 26.0115 41.5789 25.9408 41.7246 25.829L44.2155 23.9489L46.7912 27.2699L44.3316 29.1297C44.1137 29.296 43.9697 29.542 43.9309 29.8138C43.8922 30.0856 43.9619 30.361 44.1249 30.5796C44.2286 30.7235 44.3695 30.8358 44.5324 30.9047C44.6993 30.9777 44.8829 31.0044 45.0641 30.982C45.2454 30.9596 45.4178 30.8888 45.5635 30.777L48.0544 28.897L50.6489 32.2262L48.1757 34.0913C47.9579 34.2577 47.8138 34.5037 47.7751 34.7755C47.7363 35.0473 47.8061 35.3227 47.969 35.5413C48.0727 35.6851 48.2136 35.7975 48.3765 35.8663C48.5434 35.9394 48.727 35.9661 48.9083 35.9437C49.0896 35.9212 49.262 35.8505 49.4076 35.7387L51.9121 33.8532L63.7247 49.0983C64.2948 49.8315 64.6556 50.7082 64.7684 51.635C64.8813 52.5617 64.7421 53.5038 64.3656 54.3608L63.7761 55.7117Z" fill="#8D9191"/>
</g>
<defs>
<clipPath id="clip0_287_11839">
<rect width="74" height="74" fill="white"/>
</clipPath>
</defs>
</svg>
