<svg width="32" height="32" viewBox="0 0 32 32" fill="currentColor" xmlns="http://www.w3.org/2000/svg">
<path d="M26.7546 8.14624C24.2455 4.70467 20.2424 2.67009 15.9832 2.67188C8.62525 2.67505 2.66292 8.64242 2.66602 16.0004C2.66602 16.2543 2.66602 16.5069 2.68164 16.74C2.7889 18.8126 3.39217 20.8292 4.44076 22.6202C6.80306 26.7767 11.2184 29.3413 15.9994 29.3337C16.8398 29.338 17.6785 29.2586 18.5033 29.0968C21.9168 28.4338 24.9388 26.4695 26.9303 23.6189C30.1982 18.958 30.1274 12.7317 26.7546 8.14624ZM26.1297 9.66113C27.2008 11.3604 27.8053 13.2537 27.9383 15.1863L25.0254 13.0668L26.1297 9.66113ZM25.1654 8.31218L23.6952 12.8455L21.0435 14.1213L16.666 10.9915V7.6735L20.4895 4.89958C22.2887 5.63102 23.894 6.79533 25.1654 8.31218ZM20.1869 15.1449L18.5931 20.0004H13.3991L11.8158 15.1567L16.0007 12.1541L20.1869 15.1449ZM15.9994 4.00041C17.0017 4.00285 17.9858 4.13696 18.9364 4.37931L15.9994 6.50952L13.0647 4.38102C14.0225 4.13599 15.0063 3.99854 15.9994 4.00041ZM11.4837 4.89242C11.4871 4.89103 11.4908 4.89006 11.4942 4.88867L15.3327 7.6735V10.992L10.9644 14.1257L8.30355 12.8455L6.83252 8.30933C8.06413 6.84212 9.6329 5.64551 11.4837 4.89242ZM5.86084 9.63574L6.97331 13.0681L4.06185 15.186C4.20182 13.1799 4.82503 11.2829 5.86084 9.63574ZM5.84343 22.3418C5.7627 22.2118 5.67342 22.0902 5.59701 21.9561C4.6849 20.3999 4.15682 18.6526 4.03394 16.8547L7.82739 14.0951L10.4833 15.3729L12.1674 20.5228L10.5999 22.3452L5.84343 22.3418ZM6.80054 23.6759L10.4212 23.6788L11.5456 27.1328C9.7356 26.4082 8.09733 25.2387 6.80054 23.6759ZM18.8848 27.6395C16.9617 28.1179 14.9819 28.1025 13.1118 27.6369L11.6555 23.1625L13.2284 21.3337H18.7703L20.3428 23.162L18.8848 27.6395ZM21.931 26.4294C21.4495 26.7039 20.9542 26.9277 20.454 27.129L21.5775 23.6788L25.1969 23.6759C24.2803 24.7778 23.1811 25.7168 21.931 26.4294ZM26.1398 22.3418L21.3988 22.3452L19.8265 20.5172L21.5139 15.3736L24.1713 14.0951L27.9357 16.8329C27.802 18.7564 27.207 20.6445 26.1398 22.3418Z" />
</svg>
