<svg width="68" height="32" viewBox="0 0 68 32" fill="none" xmlns="http://www.w3.org/2000/svg">
<path d="M2 30L61 28L60.2553 32H2V30Z" fill="url(#paint0_linear_269_24369)" fill-opacity="0.6"/>
<path d="M26 25.5L54 24L53.6466 27H26V25.5Z" fill="url(#paint1_linear_269_24369)" fill-opacity="0.6"/>
<path d="M11 15L37 14L36.6718 16H11V15Z" fill="url(#paint2_linear_269_24369)" fill-opacity="0.6"/>
<path d="M0 20L32 19L31.5961 21H0V20Z" fill="url(#paint3_linear_269_24369)" fill-opacity="0.6"/>
<path fill-rule="evenodd" clip-rule="evenodd" d="M28.527 7.18029C25.0502 12.1687 25.9026 15.7673 26.7634 16.943C26.7952 16.9859 26.8283 17.0282 26.8627 17.07C26.9606 17.1891 26.9948 17.3505 26.9398 17.4944L26.389 18.9349C26.3155 19.127 26.3998 19.3435 26.5837 19.4355L27.5641 19.9257C27.7518 20.0195 27.9801 19.9523 28.0871 19.7718L28.6593 18.8062C28.7651 18.6276 28.9898 18.5601 29.1794 18.6448C29.6611 18.8602 30.2006 19.0687 30.798 19.278C30.9883 19.3447 31.1013 19.5412 31.0608 19.7387L30.8368 20.8309C30.7955 21.0324 30.9138 21.2323 31.1102 21.2933L32.1571 21.6179C32.3575 21.68 32.5719 21.5767 32.6482 21.3812L33.0368 20.3851C33.1127 20.1906 33.3254 20.0872 33.5254 20.1471C34.0839 20.3145 34.6741 20.488 35.2962 20.6709L35.2966 20.6711C36.439 21.0069 37.6887 21.3743 39.0455 21.7928C42.2654 22.7859 43.0268 23.477 43.9399 24.3058L43.9399 24.3058C44.3564 24.6839 44.8045 25.0907 45.5321 25.5678C45.6925 25.6731 45.7616 25.8752 45.693 26.0545L45.2845 27.1229C45.2111 27.3151 45.2953 27.5316 45.4793 27.6236L46.4596 28.1137C46.6473 28.2076 46.8756 28.1404 46.9826 27.9599L47.5107 27.0686C47.616 26.8909 47.8393 26.8228 48.027 26.909C48.5447 27.1464 49.1331 27.3993 49.8059 27.6697C49.9993 27.7474 50.1021 27.9597 50.0417 28.1591L49.7193 29.2219C49.6595 29.4187 49.7588 29.6287 49.9488 29.7075L50.9613 30.1272C51.1552 30.2076 51.3782 30.1245 51.4721 29.9368L52.0088 28.8653C52.0984 28.6863 52.3065 28.6014 52.4965 28.6645C53.142 28.8792 53.7666 29.0685 54.3696 29.2348C54.5641 29.2884 54.6901 29.477 54.663 29.6769L54.5108 30.7992C54.4832 31.003 54.6147 31.1946 54.8148 31.2421L55.8811 31.4954C56.0853 31.5439 56.2923 31.4263 56.3552 31.2261L56.6927 30.152C56.7539 29.9575 56.9514 29.8404 57.1519 29.8774C57.6913 29.9768 58.2068 30.0565 58.6974 30.1191C58.9034 30.1454 59.0576 30.3225 59.0519 30.5301L59.0269 31.4478C59.0213 31.6534 59.1725 31.8297 59.3766 31.8555L60.464 31.9929C60.6722 32.0192 60.8653 31.8802 60.9064 31.6744L61.1138 30.6351C61.1517 30.4453 61.3203 30.3104 61.5139 30.3098C63.0439 30.3049 64.1246 30.0647 64.7434 29.9179C68.8025 28.9546 68.612 26.9499 65.8772 24.6271C63.9945 23.0282 60.4757 20.0433 56.8616 16.9858L55.7979 18.0495C55.6011 18.2463 55.2821 18.2463 55.0853 18.0495C54.8885 17.8527 54.8885 17.5337 55.0853 17.3369L56.0895 16.3327C55.5024 15.8362 54.9156 15.3402 54.3358 14.8504L53.0264 16.1598C52.8296 16.3566 52.5106 16.3566 52.3138 16.1598C52.117 15.963 52.117 15.644 52.3138 15.4472L53.5632 14.1978C52.9649 13.6926 52.3774 13.1969 51.8082 12.717L50.2549 14.2703C50.0581 14.4671 49.7391 14.4671 49.5423 14.2703C49.3455 14.0736 49.3455 13.7545 49.5423 13.5577L51.0348 12.0653C50.792 11.8608 50.5535 11.6599 50.3199 11.4633C49.9569 11.1579 49.6162 10.8596 49.2962 10.5685L47.4838 12.3809C47.2871 12.5776 46.968 12.5776 46.7712 12.3809C46.5745 12.1841 46.5745 11.865 46.7712 11.6683L48.5617 9.87776C44.1212 5.55435 44.4014 2.92557 44.5194 1.81856L44.5252 1.76358C44.5611 1.42264 44.4756 1.18874 44.3307 1.03172C43.8637 0.525785 43.1021 1.07281 42.7019 1.63307L42.0338 2.5684C41.6802 3.06341 41.0454 3.27027 40.4702 3.07234C39.7419 2.82177 38.8167 2.49657 38.0378 2.20448C36.8285 1.75098 35.3504 0.54587 34.7625 0C34.3007 1.30169 33.062 3.95546 31.8022 4.15701C30.5425 4.35856 29.0939 6.25651 28.527 7.18029Z" fill="#080808"/>
<defs>
<linearGradient id="paint0_linear_269_24369" x1="61" y1="30" x2="2" y2="30" gradientUnits="userSpaceOnUse">
<stop/>
<stop offset="1" stop-opacity="0"/>
</linearGradient>
<linearGradient id="paint1_linear_269_24369" x1="54" y1="25.5" x2="26" y2="25.5" gradientUnits="userSpaceOnUse">
<stop/>
<stop offset="1" stop-opacity="0"/>
</linearGradient>
<linearGradient id="paint2_linear_269_24369" x1="37" y1="15" x2="11" y2="15" gradientUnits="userSpaceOnUse">
<stop/>
<stop offset="1" stop-opacity="0"/>
</linearGradient>
<linearGradient id="paint3_linear_269_24369" x1="32" y1="20" x2="1.50176e-08" y2="20" gradientUnits="userSpaceOnUse">
<stop/>
<stop offset="1" stop-opacity="0"/>
</linearGradient>
</defs>
</svg>
