<svg width="114" height="86" viewBox="0 0 114 86" fill="none" xmlns="http://www.w3.org/2000/svg">
<path d="M1.91482 85.8769C1.01503 85.6481 0.453575 85.2491 0.0971055 84.5846C-0.949036 82.6347 6.46012 75.6909 23.237 62.8974C25.2515 61.361 27.0562 59.8623 27.2469 59.5669C27.4379 59.2715 27.9595 57.8317 28.4065 56.3674C29.1955 53.7818 29.2066 53.6845 28.7927 52.9855C28.3845 52.2962 28.3886 52.2105 28.8932 50.95C30.2342 47.5995 30.6037 45.6169 30.6202 41.6871C30.636 37.8294 29.9826 32.8607 29.2135 30.998C29.0242 30.5394 28.8692 29.9554 28.8692 29.7C28.8692 28.9404 29.6118 29.1726 29.9779 30.0466C30.6191 31.5774 31.374 36.2852 31.523 39.682C31.6048 41.5519 31.7645 43.082 31.8776 43.082C31.9911 43.082 32.3768 42.4977 32.736 41.7838C33.7612 39.7453 36.565 35.3227 38.8806 32.0914C40.0452 30.4663 40.9621 29.1006 40.918 29.0568C40.8735 29.0124 40.3479 29.2561 39.749 29.5977C38.0287 30.5786 36.3053 30.2892 36.3053 29.0192C36.3053 28.2826 37.643 26.4524 39.2903 24.9349C42.015 22.4252 43.2501 21.9823 44.1928 23.1779C44.4609 23.5178 44.7942 23.7961 44.9335 23.7961C45.0728 23.7961 46.5067 22.4156 48.1201 20.7283C51.7654 16.916 56.3054 12.8655 56.8214 12.9655C57.6659 13.1288 57.295 13.6758 54.9667 15.7017C52.1566 18.1468 47.3071 23.0508 44.9023 25.8793C43.8205 27.1515 42.8522 28.6472 42.1417 30.1431C40.9445 32.6643 38.1319 37.5165 36.2899 40.2385C35.073 42.0368 32.1366 46.7437 31.6203 47.7239C31.4573 48.0332 31.0093 49.7022 30.6248 51.4327C30.2403 53.1632 29.7215 55.3264 29.4717 56.2397C29.2223 57.1532 29.0884 57.9708 29.1747 58.0568C29.3126 58.1958 30.9897 57.0729 33.2071 55.3576C34.6124 54.2704 43.3736 47.8504 47.2116 45.0954C49.3246 43.5785 51.7227 41.8527 52.5406 41.2602C53.3587 40.6675 54.8645 39.6044 55.8871 38.8979C56.9096 38.1914 58.5825 37.0108 59.605 36.2744C61.8544 34.6547 78.1225 23.7647 81.4175 21.6732C82.7126 20.8511 84.553 19.6951 85.5074 19.1045C87.8144 17.6764 90.4461 16.0347 93.3152 14.2337C94.6103 13.4209 96.116 12.4912 96.6614 12.1677C101.76 9.14391 109.911 3.38752 112.665 0.865764C113.926 -0.288381 114.419 -0.288619 113.595 0.865239C112.238 2.76651 105.687 7.34287 93.563 14.8591C81.9494 22.0591 73.3921 27.5975 73.7152 27.7049C73.8758 27.7579 74.5673 27.5617 75.2517 27.2681C77.8421 26.1565 77.2185 26.9576 74.2966 28.4954C69.42 31.0617 67.8694 32.4374 69.8296 32.4588C70.2727 32.4731 70.914 32.6265 71.2548 32.8208C71.5957 33.0152 72.1256 33.1783 72.4322 33.183C72.739 33.1973 72.9899 33.3205 72.9899 33.4775C72.9899 33.9885 71.832 35.2944 70.4039 36.3933C69.014 37.463 69.0013 37.4669 67.9619 37.1553C67.3873 36.9832 66.7777 36.8031 66.6072 36.7555C65.9425 36.5694 66.3586 35.9076 67.7091 35.0028C68.4857 34.4826 69.127 33.9459 69.1345 33.8099C69.1488 33.6738 68.7576 33.5265 68.2803 33.4824C67.8032 33.438 67.189 33.1938 66.9153 32.9392C66.3569 32.4199 66.642 32.2707 61.4851 35.7753C59.3562 37.222 59.323 37.26 59.4771 38.0796C59.582 38.635 59.4556 39.4485 59.0983 40.5187C58.8036 41.4019 58.6247 42.1863 58.7007 42.2621C58.7768 42.338 59.3166 42.0491 59.9009 41.6205C61.7885 40.2355 61.3013 41.3529 59.2112 43.2016C58.1327 44.1556 55.9823 46.195 54.4323 47.7332C51.7249 50.4204 50.9294 50.8971 50.9294 49.8323C50.9294 49.5926 52.2176 48.1609 53.7919 46.6505C56.6123 43.9445 56.6671 43.871 57.5101 41.6364C58.3046 39.5307 58.5582 38.384 58.2294 38.384C57.9058 38.384 56.5274 39.2177 54.9665 40.3576C54.0413 41.0333 52.615 42.0747 51.7971 42.6719C40.4024 50.9901 28.9876 59.5646 28.332 60.2979C28.1046 60.5524 27.566 61.6506 27.1352 62.7384C24.2036 70.1435 19.2784 77.3836 14.5526 81.2356C12.3405 83.0387 9.38185 84.7365 7.36095 85.3625C5.52905 85.93 3.04613 86.1644 1.91482 85.8769ZM6.52923 84.6126C9.86269 83.6911 12.3019 82.1289 15.7603 78.7001C18.4327 76.0507 20.5594 73.2905 22.6216 69.7961C24.1796 67.1557 26.2073 62.7333 26.0931 62.2241C26.0142 61.872 25.1342 62.5138 17.9629 68.1529C9.41378 74.8756 3.22866 80.4195 1.81226 82.6289C0.973506 83.9378 0.968356 83.9867 1.60345 84.6205C2.26411 85.2792 4.12816 85.2762 6.52923 84.6062V84.6126ZM35.1282 40.1766C36.4569 38.1537 38.3599 35.0988 39.1569 33.7097C39.2761 33.5017 39.259 33.4221 39.1154 33.5112C38.6841 33.7771 34.6665 39.9864 33.603 42.0311C32.9549 43.2765 33.6359 42.4477 35.1282 40.1766ZM40.4555 27.763C42.4059 26.3967 43.2455 25.3959 43.2455 24.4379C43.2455 23.9121 43.1291 23.7961 42.6033 23.7961C41.7557 23.7961 37.7924 27.621 37.7924 28.4389C37.7924 29.3026 38.5219 29.1175 40.4555 27.763ZM36.9661 46.8729C36.6486 46.5563 36.8067 46.3059 37.5739 45.91C38.3183 45.5259 38.3425 45.464 38.223 44.2348C37.9405 41.3285 40.4315 37.7245 42.1053 38.618C42.6191 38.8924 42.7921 38.8621 43.4384 38.3854C43.8468 38.0842 44.2951 37.5879 44.4347 37.2823C44.6711 36.7648 46.6839 35.55 46.918 35.7835C47.1842 36.049 46.6333 37.1413 45.6064 38.3837C44.9884 39.1314 44.3652 40.0984 44.2215 40.5327C44.0366 41.0916 43.7291 41.3995 43.1693 41.5864C42.6252 41.768 42.1229 42.2553 41.5618 43.1461C40.3022 45.1458 38.4412 47.0379 37.734 47.0379C37.4027 47.0379 37.057 46.9633 36.9661 46.8729ZM40.3435 41.7165C41.0814 40.2155 41.1105 40.1149 40.8063 40.1149C40.5686 40.1149 39.2796 42.3871 39.2796 42.8062C39.2796 43.4407 39.7148 42.995 40.3435 41.7165ZM48.3887 31.4333C47.8738 31.1434 47.8094 30.4718 48.2968 30.4718C48.4846 30.4718 48.7809 30.6436 48.9555 30.8532C49.3702 31.3517 48.9697 31.7606 48.3887 31.4333ZM82.5411 28.256C81.9576 27.6127 82.2055 26.8844 82.8846 27.2469C83.8181 27.7452 84.6506 27.4867 88.7788 25.4162C92.8422 23.3784 96.9091 20.689 96.9091 20.0399C96.9091 19.8333 96.4611 19.6705 95.6698 19.5896L94.4304 19.4621L96.3107 19.0247C98.2934 18.5634 99.0184 18.6398 99.0122 19.3094C98.9979 19.8955 98.8339 20.085 96.9091 21.6149C94.5152 23.5176 92.9117 24.5 88.4831 26.7773C84.3965 28.8787 83.3443 29.1412 82.5411 28.256Z" fill="white"/>
</svg>
