<svg width="16" height="16" viewBox="0 0 16 16" fill="none" xmlns="http://www.w3.org/2000/svg">
<path d="M8 14C6.33333 14 4.91667 13.4167 3.75 12.25C2.58333 11.0833 2 9.66667 2 8C2 6.33333 2.58333 4.91667 3.75 3.75C4.91667 2.58333 6.33333 2 8 2C8.08889 2 8.18333 2.00278 8.28333 2.00833C8.38333 2.01389 8.51111 2.02222 8.66667 2.03333C8.26667 2.38889 7.95556 2.82778 7.73333 3.35C7.51111 3.87222 7.4 4.42222 7.4 5C7.4 6 7.75 6.85 8.45 7.55C9.15 8.25 10 8.6 11 8.6C11.5778 8.6 12.1278 8.49722 12.65 8.29167C13.1722 8.08611 13.6111 7.8 13.9667 7.43333C13.9778 7.56667 13.9861 7.675 13.9917 7.75833C13.9972 7.84167 14 7.92222 14 8C14 9.66667 13.4167 11.0833 12.25 12.25C11.0833 13.4167 9.66667 14 8 14ZM8 13C9.21111 13 10.2667 12.625 11.1667 11.875C12.0667 11.125 12.6278 10.2444 12.85 9.23333C12.5722 9.35556 12.2741 9.44722 11.9556 9.50833C11.637 9.56944 11.3185 9.6 11 9.6C9.72568 9.6 8.64043 9.15192 7.74425 8.25575C6.84808 7.35957 6.4 6.27432 6.4 5C6.4 4.73333 6.42778 4.44722 6.48333 4.14167C6.53889 3.83611 6.63889 3.48889 6.78333 3.1C5.69444 3.4 4.79167 4.00833 4.075 4.925C3.35833 5.84167 3 6.86667 3 8C3 9.38889 3.48611 10.5694 4.45833 11.5417C5.43056 12.5139 6.61111 13 8 13Z" fill="#080808"/>
</svg>
